# xmcd
# 
# Track frame offsets:
#     150
#     16570
#     37524
#     61942
#     89883
#     113164
#     131421
#     148235
#     168379
#     187472
#     219657
#     236864
# 
# Disc length: 3409
# 
# Revision: 2
# Processed by: cddbd v1.5.1PL2 Copyright (c) Steve Scherf et al.
# Submitted via: BonkEnc v1.0beta3
# 
DISCID=ac0d4f0c
DTITLE=Verschiedene - easy sunday morning
DYEAR=2005
DGENRE=
TTITLE0=TIMOR feat. LILITH MILK - 23
TTITLE1=BOOT CUT ROCKER - Feelin'
TTITLE2=SPERICAL - Keep Going
TTITLE3=HIPPIEHAUS - Galaxy
TTITLE4=NAOMI - White
TTITLE5=MÄRZ - Everybody Had A Hard Year
TTITLE6=KHOIBA - No Feedback
TTITLE7=OHM-G - Island Dream
TTITLE8=AUDIO LOTION - As Velas
TTITLE9=DUGO - Adore
TTITLE10=EXXON YAZ - Toutes Les Galaxies
TTITLE11=MONKEEMAN - Sunday
EXTD=
EXTT0=
EXTT1=
EXTT2=
EXTT3=
EXTT4=
EXTT5=
EXTT6=
EXTT7=
EXTT8=
EXTT9=
EXTT10=
EXTT11=
PLAYORDER=
